<?xml version="1.0" standalone="no"?>
<!DOCTYPE svg PUBLIC "-//W3C//DTD SVG 20010904//EN"
 "http://www.w3.org/TR/2001/REC-SVG-20010904/DTD/svg10.dtd">
<svg version="1.0" xmlns="http://www.w3.org/2000/svg"
 width="619.000000pt" height="620.000000pt" viewBox="0 0 619.000000 620.000000"
 preserveAspectRatio="xMidYMid meet">

<g transform="translate(0.000000,620.000000) scale(0.100000,-0.100000)"
fill="#000000" stroke="none">
<path d="M4465 5970 c-11 -4 -31 -20 -45 -35 -25 -26 -25 -30 -25 -190 0 -159
1 -164 24 -189 14 -14 39 -31 58 -38 l33 -12 0 -111 c-1 -146 -11 -168 -153
-315 -68 -69 -123 -135 -138 -165 l-24 -50 -3 -582 -3 -583 -114 0 c-63 0
-115 2 -115 4 0 3 4 16 9 29 15 40 59 245 77 362 24 154 24 477 1 598 -50 252
-143 409 -283 478 -166 82 -347 26 -538 -166 -252 -253 -469 -746 -537 -1222
l-11 -83 -44 0 -44 0 0 547 0 547 -160 297 -160 298 0 146 c0 164 -6 186 -67
232 l-36 28 -521 3 c-585 3 -559 6 -620 -71 l-31 -39 -4 -160 c-3 -145 -5
-165 -26 -202 -12 -23 -55 -102 -95 -176 -40 -74 -99 -184 -132 -243 l-58
-108 0 -550 0 -549 -90 0 c-73 0 -93 -3 -108 -18 -10 -10 -51 -135 -101 -312
-45 -162 -107 -382 -137 -487 -71 -251 -70 -253 110 -253 l106 0 0 -1144 0
-1143 23 -33 c12 -18 35 -43 50 -54 l28 -21 2486 -3 c2477 -2 2487 -2 2527 18
23 11 50 33 61 48 20 27 20 45 23 1180 l2 1152 104 0 c120 0 153 9 162 44 4
16 -31 154 -101 403 -59 208 -120 425 -136 483 -37 135 -43 140 -160 140 l-89
0 0 585 0 586 -26 51 c-16 32 -71 97 -140 168 -62 64 -120 132 -129 153 -10
25 -15 70 -15 149 l0 113 40 17 c68 28 80 61 80 221 0 155 -9 184 -63 217 -30
19 -52 20 -367 19 -184 0 -344 -4 -355 -9z m651 -122 c1 -2 4 -49 6 -106 l3
-102 -307 0 -308 0 0 105 0 104 73 3 c80 3 529 0 533 -4z m-2981 -184 c13 -13
15 -36 13 -128 l-3 -111 -512 -3 -513 -2 0 119 c0 104 2 121 18 130 11 7 190
11 499 11 429 0 483 -2 498 -16z m2877 -296 c4 -182 12 -200 163 -357 62 -65
120 -131 129 -149 14 -28 16 -94 16 -597 l0 -565 -500 0 -500 0 0 573 c0 521
2 575 17 597 9 14 64 75 122 136 58 60 120 135 136 165 29 52 30 60 33 197 l4
142 188 0 189 0 3 -142z m-2938 -135 c-20 -38 -47 -86 -59 -108 -12 -22 -48
-89 -80 -150 -32 -60 -62 -116 -68 -122 -7 -10 -122 -13 -513 -13 -277 0 -504
2 -504 5 0 3 30 61 66 128 116 214 131 241 153 285 l21 42 511 0 510 0 -37
-67z m243 -195 c54 -100 100 -185 101 -190 2 -4 -89 -8 -202 -8 -113 0 -206 3
-206 6 0 12 198 374 205 374 2 0 48 -82 102 -182z m1391 23 c99 -51 161 -156
210 -356 27 -112 24 -500 -6 -660 -22 -118 -53 -248 -73 -312 l-11 -33 -509 0
-509 0 0 32 c0 17 14 99 31 182 75 367 243 741 431 958 147 170 323 247 436
189z m-1868 -851 l0 -510 -517 2 -518 3 -3 495 c-1 272 0 501 3 508 3 9 117
12 520 12 l515 0 0 -510z m620 0 l0 -510 -250 0 -250 0 0 510 0 510 250 0 250
0 0 -510z m3144 -812 c26 -95 77 -276 112 -401 36 -126 64 -231 61 -233 -5 -5
-5429 -6 -5434 -1 -2 2 5 33 16 68 11 35 60 210 111 389 50 179 93 331 95 338
4 9 512 12 2498 12 l2493 0 48 -172z m-66 -1900 l-3 -1133 -2469 -3 c-1969 -2
-2471 0 -2478 10 -4 7 -8 518 -8 1136 l0 1122 2480 0 2480 0 -2 -1132z"/>
<path d="M3280 4640 c-35 -35 -21 -89 28 -104 75 -23 425 -116 435 -116 20 0
57 43 57 66 -1 43 -25 54 -248 114 -122 33 -228 60 -236 60 -9 0 -25 -9 -36
-20z"/>
<path d="M3090 4278 c-29 -31 -25 -69 10 -88 24 -13 604 -170 628 -170 49 0
73 88 30 111 -29 16 -597 169 -625 169 -12 0 -31 -10 -43 -22z"/>
<path d="M2091 2374 c-167 -45 -310 -181 -372 -354 -33 -91 -34 -275 -1 -367
66 -186 169 -288 497 -493 203 -126 254 -166 363 -284 65 -70 80 -66 193 48
83 83 204 176 226 176 4 0 30 -23 58 -51 47 -48 96 -83 342 -242 57 -37 136
-100 178 -142 41 -41 82 -75 91 -75 8 0 53 36 98 79 46 44 130 110 187 147 57
37 142 92 189 122 222 144 327 343 286 541 -40 193 -172 324 -364 362 -118 24
-249 -16 -348 -107 l-48 -44 -29 27 c-27 26 -29 32 -24 83 3 30 0 91 -8 135
-36 203 -187 374 -384 435 -86 27 -217 27 -303 0 -74 -23 -190 -100 -235 -156
l-31 -39 -41 47 c-56 63 -149 123 -228 148 -78 24 -211 26 -292 4z m303 -143
c67 -33 139 -101 189 -177 28 -42 37 -49 69 -52 34 -3 39 0 64 40 101 162 227
236 382 225 208 -15 391 -207 392 -411 0 -33 -3 -37 -17 -31 -10 5 -46 13 -81
18 -76 13 -157 0 -237 -37 -64 -29 -156 -113 -192 -174 -60 -102 -78 -238 -48
-357 9 -32 12 -61 8 -65 -4 -4 -44 -33 -88 -65 -44 -32 -103 -81 -132 -108
l-52 -49 -53 51 c-76 73 -147 124 -334 240 -252 158 -341 236 -399 350 -63
125 -65 284 -4 406 98 197 346 288 533 196z m1052 -530 c54 -25 119 -84 150
-137 39 -67 93 -72 129 -12 35 60 104 125 157 148 74 32 182 25 257 -15 125
-68 193 -219 161 -356 -30 -130 -108 -215 -317 -343 -134 -83 -255 -170 -287
-205 -11 -12 -23 -21 -28 -21 -6 0 -36 24 -68 53 -32 28 -116 88 -187 132
-235 146 -301 202 -351 300 -84 167 -23 363 140 445 51 25 73 30 132 30 48 0
85 -7 112 -19z"/>
</g>
</svg>
