<?xml version="1.0" standalone="no"?>
<!DOCTYPE svg PUBLIC "-//W3C//DTD SVG 20010904//EN"
 "http://www.w3.org/TR/2001/REC-SVG-20010904/DTD/svg10.dtd">
<svg version="1.0" xmlns="http://www.w3.org/2000/svg"
 width="500.000000pt" height="500.000000pt" viewBox="0 0 500.000000 500.000000"
 preserveAspectRatio="xMidYMid meet">

<g transform="translate(0.000000,500.000000) scale(0.100000,-0.100000)"
fill="#000000" stroke="none">
<path d="M1465 4799 c-632 -62 -1119 -625 -1081 -1249 20 -330 148 -606 384
-832 149 -143 330 -241 527 -288 l70 -17 -2 -194 c-6 -462 -56 -881 -150
-1253 -42 -165 -77 -262 -137 -371 l-44 -80 -508 -5 -509 -5 -3 -152 c-2 -146
-2 -152 18 -158 42 -13 50 9 50 131 l0 114 496 2 496 3 49 80 c63 105 142 305
184 469 84 330 137 802 139 1250 1 194 -1 230 -14 236 -8 4 -64 19 -125 34
-211 50 -458 203 -590 365 -171 209 -255 447 -255 722 -1 331 119 607 364 836
230 214 532 317 861 291 376 -29 735 -269 905 -607 134 -268 157 -600 61 -885
-135 -398 -502 -697 -913 -747 -130 -15 -136 -17 -148 -40 -15 -27 -15 -610 0
-789 30 -379 97 -711 189 -943 45 -112 109 -236 136 -263 l24 -24 275 0 c154
0 286 4 300 10 l26 10 0 528 c0 397 -3 531 -12 540 -9 9 -75 12 -235 12 l-222
0 452 437 c249 240 563 544 698 675 l247 238 228 -237 c225 -236 263 -267 285
-231 5 7 9 75 9 151 l0 137 150 0 150 0 0 -331 c0 -231 3 -337 12 -352 6 -12
112 -125 235 -250 122 -126 223 -234 223 -239 0 -7 -74 -9 -224 -6 -187 4
-227 2 -239 -10 -13 -12 -14 -90 -9 -535 3 -366 8 -524 16 -529 6 -4 147 -8
314 -8 l302 0 0 -94 c0 -98 9 -121 47 -114 16 3 18 16 18 138 l0 135 -312 3
-313 2 0 470 0 470 249 0 c137 0 256 3 265 6 38 15 14 51 -146 219 -90 94
-204 216 -255 271 l-92 101 -3 357 c-3 304 -5 358 -18 366 -25 16 -425 13
-438 -3 -6 -7 -13 -62 -14 -121 l-3 -107 -210 221 c-143 151 -215 220 -227
218 -10 -2 -361 -334 -779 -738 -656 -634 -760 -738 -757 -760 l3 -25 263 -3
262 -2 0 -465 0 -465 -250 0 -250 0 -49 103 c-62 128 -93 217 -136 382 -79
301 -105 544 -112 1021 l-5 371 68 6 c185 18 423 112 579 229 306 229 486 585
486 961 0 203 -34 349 -122 528 -127 258 -300 433 -554 559 -139 69 -266 105
-423 120 -116 11 -111 11 -227 -1z"/>
</g>
</svg>
