<?xml version="1.0" standalone="no"?>
<!DOCTYPE svg PUBLIC "-//W3C//DTD SVG 20010904//EN"
 "http://www.w3.org/TR/2001/REC-SVG-20010904/DTD/svg10.dtd">
<svg version="1.0" xmlns="http://www.w3.org/2000/svg"
 width="500.000000pt" height="500.000000pt" viewBox="0 0 500.000000 500.000000"
 preserveAspectRatio="xMidYMid meet">

<g transform="translate(0.000000,500.000000) scale(0.100000,-0.100000)"
fill="#000000" stroke="none">
<path d="M2525 4374 c-113 -19 -251 -69 -334 -122 -139 -89 -252 -260 -312
-472 -21 -74 -24 -106 -23 -245 0 -135 3 -174 23 -250 80 -308 233 -526 628
-891 241 -222 763 -654 791 -654 27 0 323 237 646 518 191 166 492 474 568
582 171 240 248 487 235 749 -10 183 -54 321 -153 473 -91 141 -212 227 -399
284 -82 25 -104 28 -245 27 -139 0 -164 -3 -245 -27 -167 -50 -269 -123 -383
-271 l-23 -30 -17 25 c-137 197 -336 298 -602 305 -69 2 -138 1 -155 -1z m340
-115 c39 -12 97 -35 130 -52 82 -41 190 -152 238 -243 20 -40 44 -74 52 -78
28 -10 45 6 82 78 47 89 158 203 240 245 115 57 195 75 338 75 139 0 222 -16
337 -67 160 -72 278 -224 344 -444 23 -75 27 -107 28 -223 0 -96 -5 -159 -18
-220 -36 -168 -124 -346 -243 -493 -119 -148 -450 -461 -768 -728 -161 -135
-316 -259 -325 -259 -11 0 -234 181 -422 342 -465 400 -691 636 -802 839 -89
163 -129 321 -129 509 0 159 20 249 83 377 105 213 248 318 498 363 79 15 258
4 337 -21z"/>
<path d="M1606 2140 c-75 -12 -284 -76 -492 -151 -91 -32 -170 -59 -175 -59
-5 0 -9 6 -9 14 0 8 -10 22 -22 30 -19 14 -73 16 -384 16 -337 0 -362 -1 -377
-18 -16 -17 -17 -81 -17 -718 0 -423 4 -705 10 -714 8 -13 62 -15 389 -15 209
0 383 4 388 8 4 5 10 75 13 155 l5 147 90 12 c50 6 197 16 327 23 238 11 331
9 993 -21 138 -6 428 -12 645 -13 389 -1 396 -1 462 22 250 86 745 422 958
648 141 151 168 287 77 391 -40 45 -82 63 -149 63 -65 0 -93 -13 -403 -185
-272 -151 -462 -244 -565 -279 l-75 -25 -140 14 c-77 8 -144 15 -149 15 -5 0
0 10 11 23 53 57 69 156 38 230 -49 119 -162 167 -630 272 -115 26 -273 62
-350 81 -116 29 -163 36 -275 39 -74 2 -161 0 -194 -5z m279 -90 c39 -6 126
-24 195 -40 69 -16 231 -54 360 -85 327 -77 448 -117 495 -165 72 -74 53 -169
-43 -213 -64 -29 -152 -26 -625 17 -208 19 -385 32 -393 29 -22 -8 -29 -52
-11 -70 13 -13 155 -29 719 -80 387 -35 721 -60 743 -57 106 16 320 119 735
352 208 117 229 127 277 127 41 0 57 -5 77 -24 78 -73 25 -191 -160 -355 -273
-243 -686 -504 -874 -552 -59 -15 -106 -16 -530 -5 -256 6 -634 18 -840 27
-411 17 -740 13 -936 -11 -66 -8 -125 -15 -131 -15 -10 0 -13 96 -13 449 0
419 1 449 18 454 9 3 128 44 264 91 258 89 339 113 423 126 74 11 171 11 250
0z m-1050 -798 l0 -637 -305 0 -305 0 -3 638 -2 637 307 0 308 0 0 -638z"/>
</g>
</svg>
