<?xml version="1.0" standalone="no"?>
<!DOCTYPE svg PUBLIC "-//W3C//DTD SVG 20010904//EN"
 "http://www.w3.org/TR/2001/REC-SVG-20010904/DTD/svg10.dtd">
<svg version="1.0" xmlns="http://www.w3.org/2000/svg"
 width="617.000000pt" height="619.000000pt" viewBox="0 0 617.000000 619.000000"
 preserveAspectRatio="xMidYMid meet">

<g transform="translate(0.000000,619.000000) scale(0.100000,-0.100000)"
fill="#000000" stroke="none">
<path d="M5470 5064 c-112 -31 -185 -50 -468 -125 -113 -29 -120 -40 -92 -144
11 -43 19 -78 18 -80 -2 -1 -30 -10 -63 -21 -56 -17 -111 -19 -745 -24 -661
-5 -686 -6 -722 -25 -21 -11 -149 -130 -285 -265 -137 -135 -267 -262 -290
-283 l-41 -39 -46 21 c-158 69 -332 36 -457 -89 -100 -99 -139 -209 -140 -387
0 -118 11 -183 47 -285 35 -100 117 -252 157 -293 7 -6 26 -29 42 -50 17 -22
47 -58 68 -81 20 -23 37 -46 37 -52 0 -5 27 -34 60 -62 60 -52 61 -53 113 -46
135 16 417 132 505 208 18 15 39 28 47 28 8 0 51 36 96 80 59 58 89 80 108 80
14 0 46 9 70 20 24 11 52 20 63 20 11 0 180 43 376 95 l355 95 136 84 c575
354 574 353 659 376 46 12 85 20 89 17 3 -4 14 -37 24 -74 21 -76 40 -96 84
-90 17 2 161 39 320 81 160 43 308 82 330 87 51 13 65 25 65 60 0 22 -106 426
-215 819 -8 30 -31 116 -51 190 -37 138 -49 170 -68 182 -19 13 -57 7 -186
-28z m250 -609 c119 -434 135 -501 121 -507 -23 -10 -507 -138 -523 -138 -9 0
-56 157 -150 503 -75 276 -135 504 -133 505 2 2 51 17 108 32 l105 28 17 -67
c50 -194 61 -214 109 -209 21 2 35 12 45 29 14 24 12 37 -18 148 -19 67 -31
124 -28 127 10 10 172 53 191 51 17 -2 38 -69 156 -502z m-732 53 c13 -46 51
-186 86 -313 l63 -230 -56 -17 c-31 -9 -74 -21 -96 -27 -22 -6 -201 -109 -397
-229 -351 -216 -358 -220 -470 -250 -677 -184 -795 -213 -837 -209 -120 13
-171 154 -88 243 30 31 50 39 272 99 132 36 265 78 295 93 62 31 112 94 131
165 26 98 -18 224 -99 281 -96 68 -156 71 -347 17 l-137 -39 -64 -63 c-61 -60
-67 -64 -133 -75 -38 -7 -95 -23 -125 -37 l-56 -26 -26 41 -26 41 273 273
c151 151 288 281 305 289 27 13 126 15 686 15 611 1 657 2 718 20 105 30 102
32 128 -62z m-1287 -480 c41 -23 79 -84 79 -128 0 -48 -39 -108 -83 -129 -58
-28 -171 -55 -175 -43 -18 54 -110 150 -175 184 l-28 14 27 30 c22 23 51 35
143 61 140 38 162 39 212 11z m-1016 -62 c63 -29 127 -98 150 -162 30 -82 70
-96 129 -44 70 62 176 91 256 70 56 -14 130 -63 158 -104 28 -42 28 -43 -10
-51 -93 -19 -202 -59 -240 -88 -84 -64 -122 -202 -83 -304 22 -56 76 -118 127
-144 41 -21 48 -36 21 -46 -10 -3 -47 -27 -83 -53 -67 -49 -121 -80 -139 -80
-6 0 -34 -11 -63 -24 -53 -23 -148 -56 -222 -75 -38 -10 -38 -10 -97 52 -216
225 -328 460 -329 682 0 197 75 330 217 381 61 21 150 17 208 -10z"/>
<path d="M5402 4509 c-35 -13 -48 -53 -29 -83 22 -33 52 -41 82 -22 32 21 40
52 21 80 -17 28 -43 36 -74 25z"/>
<path d="M2900 5034 c-533 -48 -1028 -320 -1346 -739 -264 -347 -409 -798
-390 -1209 7 -151 17 -180 64 -184 60 -6 62 0 61 212 0 129 5 223 16 291 100
629 509 1147 1088 1381 227 92 412 127 667 127 243 0 397 -28 648 -117 78 -28
101 -25 122 14 17 32 -4 66 -57 90 -79 35 -266 89 -386 110 -109 20 -382 33
-487 24z"/>
<path d="M4822 3564 c-27 -18 -28 -53 -7 -169 19 -106 19 -362 0 -490 -59
-390 -233 -742 -500 -1010 -274 -273 -606 -440 -999 -500 -162 -25 -467 -16
-626 18 -167 36 -271 73 -457 164 -50 24 -54 24 -77 9 -33 -21 -41 -52 -22
-81 35 -53 340 -173 543 -214 671 -134 1354 94 1803 601 333 376 510 899 470
1389 -14 173 -32 259 -60 281 -27 22 -39 22 -68 2z"/>
<path d="M3515 2908 c-16 -6 -189 -102 -385 -214 -195 -111 -359 -203 -364
-204 -5 -1 -17 19 -26 43 -25 66 -63 110 -122 143 l-53 29 -648 3 c-744 3
-647 15 -862 -108 -67 -39 -125 -70 -129 -70 -3 0 -6 8 -6 19 0 10 -10 31 -21
46 -27 33 -32 32 -224 -19 -77 -20 -192 -51 -255 -67 -63 -17 -149 -39 -190
-50 -85 -23 -103 -36 -102 -76 0 -15 71 -284 156 -598 106 -388 161 -574 173
-582 23 -17 41 -16 126 6 39 11 160 43 267 71 107 28 229 60 270 71 93 25 103
37 95 110 l-6 56 153 89 153 89 474 3 c437 2 476 3 515 21 22 10 313 174 646
365 487 278 613 355 648 392 116 126 81 319 -75 411 -51 30 -157 41 -208 21z
m145 -130 c34 -17 51 -35 68 -69 21 -42 22 -51 11 -93 -8 -31 -22 -55 -43 -72
-17 -14 -303 -181 -636 -372 l-605 -347 -485 -5 -485 -5 -110 -61 c-60 -34
-131 -74 -157 -89 -36 -20 -49 -23 -53 -13 -2 7 -33 121 -69 253 -36 132 -75
276 -87 320 -12 44 -25 94 -29 110 -4 17 -10 40 -14 51 -6 19 9 30 136 102 79
44 153 85 165 91 16 8 196 11 647 9 613 -3 625 -3 652 -24 49 -36 68 -70 68
-123 0 -56 -20 -93 -67 -121 -30 -19 -53 -20 -429 -20 -385 0 -399 -1 -418
-20 -25 -25 -26 -62 -2 -83 15 -13 72 -16 422 -19 l405 -3 52 24 c48 21 106
72 129 114 7 12 635 378 804 468 45 25 76 24 130 -3z m-2722 -753 c68 -247
129 -474 136 -502 l13 -53 -36 -9 c-20 -6 -140 -37 -267 -70 -127 -34 -235
-61 -240 -61 -5 0 -27 64 -48 143 -22 78 -45 162 -52 187 -11 42 -39 145 -100
375 -13 50 -37 138 -53 197 l-29 108 56 16 c31 9 79 22 106 30 27 8 50 13 52
11 1 -1 16 -56 34 -122 34 -128 49 -155 87 -155 27 0 63 32 63 57 0 9 -14 68
-31 131 -17 62 -28 116 -25 119 3 3 40 16 83 28 136 41 109 87 251 -430z"/>
<path d="M629 2026 c-65 -33 -21 -131 49 -105 32 12 47 55 28 84 -18 28 -48
36 -77 21z"/>
</g>
</svg>
