<?xml version="1.0" standalone="no"?>
<!DOCTYPE svg PUBLIC "-//W3C//DTD SVG 20010904//EN"
 "http://www.w3.org/TR/2001/REC-SVG-20010904/DTD/svg10.dtd">
<svg version="1.0" xmlns="http://www.w3.org/2000/svg"
 width="500.000000pt" height="500.000000pt" viewBox="0 0 500.000000 500.000000"
 preserveAspectRatio="xMidYMid meet">

<g transform="translate(0.000000,500.000000) scale(0.100000,-0.100000)"
fill="#000000" stroke="none">
<path d="M2363 4445 c-270 -73 -472 -268 -554 -535 -19 -61 -23 -98 -23 -200
0 -140 18 -218 79 -343 84 -171 258 -318 450 -381 108 -35 308 -37 429 -5 155
42 335 174 421 309 87 136 116 227 122 381 7 151 -9 237 -63 350 -106 221
-288 370 -516 424 -80 19 -275 19 -345 0z m384 -94 c201 -69 339 -200 419
-395 33 -81 56 -206 38 -206 -5 0 -47 9 -94 19 -229 51 -372 149 -520 359 -43
60 -66 57 -117 -15 -148 -210 -316 -314 -576 -358 l-39 -6 7 43 c23 150 81
270 179 375 188 199 456 269 703 184z m-157 -353 c29 -35 82 -89 119 -121 64
-56 214 -142 276 -158 64 -17 152 -37 189 -44 l39 -6 -6 -60 c-21 -193 -169
-401 -356 -498 -110 -57 -184 -75 -316 -75 -196 0 -326 55 -471 199 -75 75
-98 105 -132 175 -37 76 -82 243 -69 256 2 3 29 9 60 14 228 37 408 137 549
304 35 41 63 75 64 76 0 0 25 -28 54 -62z"/>
<path d="M949 3806 c-20 -14 -41 -37 -47 -53 -11 -28 -128 -427 -164 -558 -10
-38 -27 -97 -38 -130 -47 -150 -55 -198 -54 -335 0 -272 59 -426 315 -820 196
-303 314 -558 409 -885 45 -155 47 -160 75 -163 15 -2 31 2 35 8 22 35 -102
421 -210 655 -48 104 -159 296 -280 486 -220 344 -280 516 -267 768 4 82 13
132 40 221 20 63 42 140 50 170 11 43 126 443 153 532 16 53 60 60 133 23 89
-45 151 -146 151 -248 0 -56 -14 -113 -86 -353 -38 -125 -40 -146 -19 -164 31
-26 53 -2 79 83 95 320 108 380 104 452 -9 132 -84 247 -201 305 -75 38 -129
39 -178 6z"/>
<path d="M3955 3801 c-70 -33 -140 -103 -175 -176 -19 -37 -26 -71 -28 -132
-4 -81 -2 -90 48 -263 10 -36 31 -108 46 -160 33 -114 43 -128 79 -112 14 6
25 17 25 23 0 7 -28 107 -62 223 -69 238 -76 299 -41 377 28 62 84 123 138
148 55 26 87 27 107 4 15 -18 139 -430 239 -797 37 -136 34 -304 -8 -461 -31
-116 -119 -286 -261 -505 -126 -194 -238 -398 -301 -550 -73 -175 -160 -449
-164 -518 -2 -36 -1 -37 32 -37 l33 0 47 165 c90 315 189 531 381 835 283 449
343 598 344 865 0 116 -9 169 -59 340 -18 63 -52 179 -74 258 -88 308 -125
428 -135 444 -16 26 -80 58 -117 58 -19 0 -61 -13 -94 -29z"/>
<path d="M1929 3031 c-86 -89 -185 -217 -238 -308 -36 -60 -41 -75 -31 -92 13
-26 42 -27 62 -3 8 9 32 46 53 81 49 82 144 201 217 273 60 58 75 99 42 112
-30 11 -39 6 -105 -63z"/>
<path d="M3030 3081 c-5 -11 -10 -23 -10 -26 0 -4 33 -42 74 -84 98 -102 151
-170 215 -274 48 -78 57 -88 80 -85 41 5 38 42 -10 123 -61 101 -121 178 -218
278 -86 89 -112 102 -131 68z"/>
<path d="M2821 2889 c-136 -48 -311 -62 -441 -35 -36 8 -66 13 -66 12 -1 0 1
-19 5 -40 8 -49 23 -54 172 -63 118 -7 248 12 353 50 66 25 87 47 70 75 -15
24 -30 24 -93 1z"/>
<path d="M1210 2884 c-83 -36 -134 -116 -134 -209 0 -54 7 -72 68 -190 87
-166 127 -233 191 -320 60 -81 294 -364 318 -383 20 -17 57 1 57 28 0 10 -64
97 -143 192 -163 198 -190 232 -234 302 -55 86 -183 347 -183 372 0 94 93 165
187 144 50 -12 82 -48 143 -165 125 -239 199 -328 442 -534 184 -155 269 -268
335 -442 82 -216 84 -459 7 -688 -20 -56 -33 -110 -30 -118 4 -9 17 -13 37
-11 26 2 33 10 46 43 105 282 107 562 6 819 -73 184 -180 320 -388 491 -186
153 -286 277 -389 483 -54 107 -96 158 -151 183 -49 23 -137 24 -185 3z"/>
<path d="M2167 2893 c-4 -3 -7 -14 -7 -24 0 -17 2 -17 39 -1 22 9 37 20 34 24
-5 10 -57 10 -66 1z"/>
<path d="M3692 2889 c-53 -16 -102 -77 -182 -227 -85 -161 -179 -285 -286
-377 -39 -33 -112 -95 -163 -139 -206 -175 -338 -410 -372 -663 -24 -183 5
-427 70 -575 18 -42 24 -48 50 -48 16 0 31 6 35 15 3 8 -8 51 -24 94 -81 221
-83 490 -4 699 73 195 167 317 370 481 205 166 295 279 424 529 29 57 63 110
75 118 92 60 206 20 234 -81 13 -49 2 -84 -70 -223 -82 -158 -181 -300 -346
-500 -73 -88 -133 -169 -133 -180 0 -29 24 -46 48 -33 27 14 306 356 375 459
32 48 92 154 133 235 79 158 87 194 63 280 -14 52 -84 122 -134 136 -48 13
-117 13 -163 0z"/>
<path d="M2218 2862 c-16 -9 -28 -22 -28 -28 0 -10 62 -34 89 -34 17 0 13 46
-5 64 -19 20 -22 20 -56 -2z"/>
</g>
</svg>
