<?xml version="1.0" standalone="no"?>
<!DOCTYPE svg PUBLIC "-//W3C//DTD SVG 20010904//EN"
 "http://www.w3.org/TR/2001/REC-SVG-20010904/DTD/svg10.dtd">
<svg version="1.0" xmlns="http://www.w3.org/2000/svg"
 width="616.000000pt" height="621.000000pt" viewBox="0 0 616.000000 621.000000"
 preserveAspectRatio="xMidYMid meet">

<g transform="translate(0.000000,621.000000) scale(0.100000,-0.100000)"
fill="#000000" stroke="none">
<path d="M1761 4828 c-12 -12 -41 -62 -65 -112 -25 -50 -81 -143 -126 -206
-111 -159 -125 -189 -125 -275 1 -73 19 -122 71 -192 24 -31 24 -34 24 -269 0
-229 -24 -1513 -34 -1874 -7 -207 -3 -234 38 -302 107 -176 383 -135 437 65 8
32 6 292 -10 1072 -12 566 -21 1084 -21 1150 l0 121 39 52 c151 200 101 506
-121 745 -49 52 -76 59 -107 25z m88 -155 c47 -57 99 -163 117 -239 30 -127 2
-262 -70 -336 -26 -28 -29 -28 -150 -28 -138 0 -142 2 -185 87 -42 85 -34 110
92 299 61 93 121 188 131 212 10 23 23 42 27 42 4 0 21 -17 38 -37z m1 -758
l0 -65 -105 0 -105 0 0 65 0 65 105 0 105 0 0 -65z m4 -297 c3 -73 13 -536 23
-1029 16 -882 16 -897 -3 -929 -61 -104 -201 -103 -254 1 -21 40 -21 44 -11
547 6 279 13 602 16 717 3 116 8 348 11 518 l7 307 102 0 103 0 6 -132z"/>
<path d="M2588 4839 c-17 -9 -18 -100 -18 -1669 0 -1507 1 -1660 16 -1675 14
-14 65 -15 470 -13 391 3 456 5 464 18 6 9 10 646 10 1672 0 1628 0 1657 -19
1668 -27 14 -899 13 -923 -1z m843 -104 c1 -8 1 -31 1 -50 0 -19 0 -62 -1 -95
l-1 -60 -88 0 c-96 0 -112 -7 -112 -52 0 -38 24 -48 122 -48 l83 0 -2 -87 c-1
-49 -2 -93 -2 -100 -1 -8 -47 -13 -162 -15 -146 -3 -162 -5 -175 -22 -15 -21
-10 -55 10 -68 6 -4 82 -8 169 -8 118 0 157 -3 158 -12 4 -41 4 -175 1 -185
-3 -9 -30 -13 -91 -13 -95 0 -111 -7 -111 -52 0 -38 24 -48 122 -48 l83 0 0
-100 0 -100 -157 0 c-145 0 -160 -2 -178 -20 -24 -24 -24 -29 -4 -58 15 -21
21 -22 174 -22 l160 0 6 -24 c4 -18 1 -143 -6 -183 0 -2 -40 -3 -88 -3 -55 0
-92 -4 -100 -12 -15 -15 -16 -65 -1 -74 6 -3 52 -7 103 -8 l91 -2 0 -102 0
-102 -162 0 c-162 0 -163 0 -179 -25 -15 -23 -15 -27 0 -50 16 -25 17 -25 176
-25 l160 0 1 -42 c1 -51 1 -150 0 -160 -1 -5 -41 -8 -89 -8 -93 0 -112 -8
-112 -46 0 -35 21 -43 115 -46 l89 -3 1 -103 0 -102 -162 0 c-156 0 -162 -1
-177 -22 -20 -29 -20 -34 4 -58 18 -18 33 -20 175 -20 154 0 155 0 156 -22 1
-37 1 -672 0 -685 -1 -10 -85 -13 -386 -13 l-385 0 0 1585 0 1585 385 0 c335
0 385 -2 386 -15z"/>
<path d="M2982 2073 c-87 -42 -106 -153 -40 -229 72 -81 201 -58 244 45 18 44
17 67 -5 118 -33 72 -125 103 -199 66z m102 -99 c21 -20 20 -43 -1 -66 -31
-34 -83 -12 -83 36 0 44 52 63 84 30z"/>
<path d="M4318 4838 c-9 -7 -59 -117 -112 -244 l-96 -231 2 -1376 3 -1375 30
-43 c17 -23 47 -51 67 -61 48 -25 168 -34 228 -18 57 15 124 80 139 135 8 28
11 436 11 1384 l0 1344 -101 236 c-95 222 -117 261 -144 261 -6 0 -18 -6 -27
-12z m36 -216 c-22 -5 -27 3 -19 29 l7 22 14 -24 c11 -20 10 -25 -2 -27z m81
-159 c14 -31 24 -58 21 -60 -2 -2 -53 -2 -113 -1 l-110 3 25 58 25 57 63 0 64
0 25 -57z m55 -1313 l0 -1150 -140 0 -140 0 0 1150 0 1150 140 0 140 0 0
-1150z m0 -1275 l0 -25 -140 0 -140 0 0 25 0 25 140 0 140 0 0 -25z m0 -170
c0 -56 -20 -97 -55 -113 -14 -7 -58 -12 -96 -12 -65 0 -73 2 -100 29 -25 26
-29 37 -29 85 l0 56 140 0 140 0 0 -45z"/>
</g>
</svg>
