<?xml version="1.0" standalone="no"?>
<!DOCTYPE svg PUBLIC "-//W3C//DTD SVG 20010904//EN"
 "http://www.w3.org/TR/2001/REC-SVG-20010904/DTD/svg10.dtd">
<svg version="1.0" xmlns="http://www.w3.org/2000/svg"
 width="500.000000pt" height="500.000000pt" viewBox="0 0 500.000000 500.000000"
 preserveAspectRatio="xMidYMid meet">

<g transform="translate(0.000000,500.000000) scale(0.100000,-0.100000)"
fill="#000000" stroke="none">
<path d="M959 4430 c-67 -20 -99 -60 -99 -125 0 -47 21 -86 65 -119 19 -15 45
-46 56 -69 20 -39 21 -42 4 -52 -102 -60 -139 -91 -184 -152 -127 -173 -273
-459 -332 -654 -23 -72 -26 -76 -66 -93 -104 -43 -110 -182 -10 -234 17 -9 52
-36 76 -59 l44 -43 -70 -73 c-80 -84 -117 -161 -184 -382 -68 -226 -92 -354
-93 -495 0 -136 14 -194 71 -276 24 -36 24 -39 9 -64 -86 -132 -131 -270 -131
-401 0 -90 2 -99 38 -171 80 -164 228 -242 457 -242 121 0 155 12 189 69 11
19 28 38 37 42 28 11 66 -19 83 -66 26 -72 37 -76 322 -116 140 -19 275 -35
300 -35 56 0 80 17 124 86 49 76 89 69 109 -20 19 -81 60 -102 226 -110 69 -4
144 -9 167 -12 68 -9 108 10 153 72 53 71 74 82 109 57 14 -11 36 -37 47 -57
42 -73 52 -76 296 -76 212 0 218 1 244 23 14 13 36 43 48 67 39 80 74 80 114
-3 34 -71 53 -77 246 -77 162 0 165 0 195 26 17 14 31 33 31 41 0 8 15 30 34
49 28 28 41 34 77 34 38 0 47 -5 88 -49 25 -28 58 -53 72 -56 15 -4 77 4 139
16 141 28 161 43 168 122 6 80 32 83 111 14 29 -25 40 -29 75 -24 49 6 201 89
217 119 7 13 8 45 4 90 l-7 69 59 -7 c72 -8 92 1 133 58 70 96 90 228 51 339
l-19 57 28 27 c15 14 40 52 56 83 26 52 29 67 29 157 0 89 -3 107 -29 162 -15
34 -36 69 -46 78 -14 13 -16 23 -9 62 11 55 -9 149 -41 194 -40 55 -125 119
-269 200 -188 107 -309 185 -446 289 -195 148 -788 624 -1324 1062 -174 142
-266 211 -292 218 -134 36 -296 -124 -273 -269 4 -23 20 -62 36 -87 16 -26 26
-50 21 -54 -4 -4 -30 -16 -58 -26 -39 -15 -77 -19 -170 -19 -143 0 -233 25
-329 90 l-60 40 -18 100 c-50 281 -97 340 -271 334 -104 -4 -121 5 -141 75
-21 71 -90 163 -157 207 -60 41 -92 50 -130 39z m98 -109 c47 -37 104 -113
117 -156 5 -18 -1 -23 -36 -33 -24 -7 -48 -15 -55 -18 -6 -3 -19 12 -29 33
-10 21 -40 60 -67 86 -54 52 -64 90 -31 114 28 21 49 16 101 -26z m209 -280
c17 -11 49 -48 70 -83 130 -216 311 -388 472 -448 146 -55 323 -63 450 -20 63
22 178 98 188 125 5 13 10 13 35 -1 16 -8 29 -16 29 -19 0 -2 -11 -21 -25 -41
-28 -42 -32 -82 -10 -124 23 -44 62 -70 107 -70 49 0 86 19 126 65 l32 36 30
-23 c16 -12 30 -25 30 -29 0 -3 -14 -23 -30 -44 -17 -21 -33 -49 -36 -62 -11
-41 5 -90 37 -117 63 -53 122 -47 190 20 l46 45 49 -45 49 -44 -33 -35 c-74
-77 -51 -186 44 -217 41 -14 90 0 135 37 l30 25 34 -38 c19 -22 34 -44 35 -50
0 -6 -21 -26 -47 -45 -27 -18 -103 -87 -170 -152 l-122 -119 -348 177 c-191
98 -406 208 -478 246 -71 37 -147 71 -168 74 -110 21 -236 -109 -237 -242 0
-66 13 -97 64 -151 l41 -43 -25 -21 c-74 -60 -201 -98 -330 -98 -83 0 -138 10
-221 41 -53 19 -56 23 -74 72 -54 155 -152 317 -193 317 -21 0 -12 52 42 257
72 269 81 398 35 531 -24 71 -80 153 -131 193 l-39 31 23 17 c13 8 57 33 98
53 86 44 146 50 196 19z m225 -21 c10 -6 26 -24 34 -40 14 -28 55 -181 55
-208 0 -20 -89 85 -142 168 -26 41 -48 78 -48 83 0 11 78 9 101 -3z m1102
-166 c47 -38 86 -74 86 -79 1 -6 -24 -35 -54 -65 l-55 -54 -55 27 c-71 35 -84
34 -116 -5 -24 -29 -29 -31 -45 -18 -22 19 -44 72 -44 106 0 39 45 109 88 140
57 39 92 30 195 -52z m-1621 -24 c17 -19 45 -64 62 -100 30 -62 31 -70 30
-190 0 -115 -4 -138 -43 -285 -24 -88 -50 -193 -59 -232 -11 -57 -19 -73 -32
-73 -10 0 -37 -7 -61 -15 -27 -10 -58 -14 -80 -10 -30 5 -40 13 -54 45 -24 54
-93 123 -158 160 -62 35 -61 26 -21 150 43 134 212 460 298 576 31 42 31 42
59 25 16 -9 43 -32 59 -51z m1818 -139 l34 -28 -104 -112 c-81 -86 -110 -111
-130 -111 -31 0 -50 17 -50 45 0 18 192 235 209 235 4 0 22 -13 41 -29z m145
-116 c18 -15 18 -17 -25 -60 -24 -25 -47 -45 -50 -45 -3 0 -18 11 -35 24 l-30
25 44 45 c46 47 49 47 96 11z m53 -234 c-102 -105 -134 -125 -164 -100 -33 27
-16 58 87 164 l102 105 39 -31 39 -31 -103 -107z m218 12 l45 -36 -47 -48 -47
-48 -48 42 -49 42 42 42 c23 24 46 43 51 43 5 0 29 -16 53 -37z m80 -255 c-55
-60 -112 -111 -124 -114 -17 -5 -30 0 -45 14 -29 29 -19 47 98 170 l97 102 38
-32 38 -32 -102 -108z m426 -150 c452 -361 549 -431 768 -553 279 -156 344
-226 325 -351 -8 -54 -55 -147 -99 -197 l-33 -37 -59 39 c-71 47 -126 70 -305
126 -273 87 -348 120 -922 405 -158 78 -289 146 -292 150 -7 12 173 185 268
256 51 40 87 74 87 85 0 9 -27 50 -60 90 l-60 74 58 58 c31 31 62 55 68 53 7
-3 122 -92 256 -198z m-3199 131 c60 -31 113 -74 138 -115 12 -19 20 -36 18
-38 -2 -1 -18 -8 -36 -15 -18 -7 -37 -19 -43 -26 -9 -11 -22 -3 -63 38 -29 29
-68 61 -87 72 -58 34 -49 105 12 105 10 0 38 -10 61 -21z m1602 -140 c55 -29
102 -53 104 -55 2 -2 -15 -35 -39 -74 -45 -75 -46 -75 -118 -49 -13 5 -36 9
-52 9 -24 0 -33 -7 -50 -40 -21 -40 -21 -40 -44 -23 -58 43 -74 117 -42 185
24 51 80 98 114 98 16 0 73 -23 127 -51z m-1078 -91 c21 -20 103 -177 103
-198 0 -6 -15 -1 -32 12 -42 29 -208 188 -208 199 0 10 57 18 90 12 14 -3 35
-14 47 -25z m-268 2 c23 -6 71 -45 140 -113 159 -155 274 -229 431 -278 60
-19 97 -24 190 -23 224 0 371 69 485 228 18 24 23 26 47 17 27 -10 27 -11 13
-45 -20 -48 -19 -85 5 -124 56 -91 178 -75 235 32 21 39 30 42 70 24 30 -14
31 -21 4 -65 -17 -27 -20 -45 -17 -84 6 -56 27 -85 77 -106 62 -26 124 1 166
73 14 24 31 44 37 44 15 0 98 -53 98 -63 0 -4 -9 -24 -20 -44 -37 -69 -19
-148 42 -179 62 -32 137 -12 172 47 10 16 21 29 25 29 11 0 91 -63 91 -72 0
-4 -15 -25 -33 -45 -202 -229 -339 -525 -363 -784 -4 -38 -8 -69 -10 -69 -34
0 -988 143 -1578 236 l-239 38 -19 31 c-40 65 -43 98 -43 440 0 329 0 330 -26
406 -43 125 -117 217 -219 270 l-41 22 33 34 c49 51 133 113 165 123 38 11 43
11 82 0z m1610 -46 c4 -4 -110 -192 -146 -241 -35 -48 -93 -41 -93 11 0 12 35
78 77 147 l77 127 41 -20 c22 -11 42 -22 44 -24z m111 -59 c17 -9 30 -18 30
-21 0 -9 -51 -94 -60 -99 -5 -3 -24 2 -43 11 l-35 17 32 53 c17 30 35 54 39
54 4 0 21 -7 37 -15z m150 -75 c22 -11 40 -23 40 -26 0 -3 -35 -61 -77 -130
-78 -126 -105 -151 -137 -125 -29 25 -24 51 26 133 28 46 63 102 77 126 14 23
27 42 29 42 1 0 21 -9 42 -20z m-2064 -128 c50 -51 87 -119 110 -202 14 -53
17 -97 14 -245 -6 -375 -5 -427 13 -487 9 -31 17 -58 17 -61 0 -2 -89 11 -197
29 -219 38 -226 41 -262 123 -45 104 -43 224 5 438 31 139 107 379 140 446
l24 47 48 -24 c26 -13 66 -42 88 -64z m2238 41 c61 -29 60 -24 9 -106 l-24
-38 -47 27 c-26 15 -51 30 -55 34 -7 6 49 110 59 110 2 0 28 -12 58 -27z m170
-88 c20 -8 36 -20 36 -26 0 -22 -153 -259 -171 -264 -10 -3 -27 -2 -37 4 -39
21 -32 46 45 176 42 69 79 125 83 125 4 0 24 -7 44 -15z m489 -244 c465 -229
535 -259 802 -346 296 -97 351 -132 376 -242 20 -87 -28 -236 -105 -321 -65
-72 -233 -138 -456 -179 -149 -27 -412 -25 -755 7 -120 12 -508 56 -567 66
l-37 6 5 46 c32 283 146 530 353 770 39 45 71 88 71 97 0 8 -34 42 -75 76 -41
34 -73 64 -71 68 20 40 80 131 86 131 4 0 172 -81 373 -179z m1420 -509 c0
-71 -25 -146 -64 -188 l-20 -21 -38 36 c-31 30 -38 43 -40 79 -1 24 -6 55 -12
69 -8 22 -4 31 34 72 23 25 54 64 67 86 l24 39 24 -52 c17 -38 24 -72 25 -120z
m-4070 -292 c1562 -258 2618 -393 3032 -385 298 5 618 98 738 213 23 22 58 77
87 135 l48 98 21 -30 c68 -95 84 -212 42 -306 -35 -79 -47 -88 -106 -80 -67 8
-101 -6 -122 -50 -14 -29 -15 -44 -7 -85 6 -27 8 -54 5 -59 -9 -14 -136 -81
-153 -81 -9 0 -21 7 -29 16 -21 26 -86 54 -123 54 -25 0 -45 -9 -68 -29 -27
-24 -33 -38 -38 -82 l-5 -54 -103 -19 -104 -19 -36 42 c-101 113 -245 88 -324
-57 -11 -20 -22 -29 -35 -27 -10 2 -76 4 -148 4 l-130 1 -25 47 c-65 121 -178
120 -241 -2 -31 -61 -40 -63 -239 -63 -187 0 -196 2 -220 47 -33 65 -73 94
-135 99 -54 4 -56 4 -98 -39 -23 -24 -51 -57 -62 -73 l-20 -28 -169 11 c-92 6
-176 16 -186 21 -10 5 -20 24 -24 42 -9 50 -42 96 -81 115 -51 24 -107 5 -143
-48 -15 -22 -36 -51 -47 -65 l-20 -24 -265 36 c-146 19 -271 39 -278 42 -8 4
-20 25 -27 46 -18 51 -53 85 -99 96 -51 11 -100 -5 -130 -43 -54 -69 -50 -67
-138 -67 -199 1 -339 72 -400 205 -34 74 -32 212 4 313 25 68 102 212 114 212
3 0 223 -36 487 -80z"/>
</g>
</svg>
